<svg xmlns="http://www.w3.org/2000/svg" viewBox="0 0 1800 376">
  <g fill="#FFF" transform="translate(0 1)">
    <path d="M747.282 133.560368C747.282 102.792368 747.456 72.0356676 747.162 41.2786676 747.086 33.7174676 748.743 29.5337676 757.238 31.4730676 758.293 31.6207676 759.361 31.6536676 760.423 31.5711676 783.564 31.9960676 783.553 31.9960676 783.564 55.6493676 783.564 108.338368 783.564 161.023368 783.564 213.705368 783.564 235.800368 790.108 255.433368 807.251 270.359368 833.577 293.294368 888.442 288.118368 905.247 248.406368 916.862 220.961368 916.567 194.257368 895.792 171.246368 873.883 146.961368 840.6 143.496368 809.323 160.438368 798.123 166.496368 797.981 166.420368 797.861 154.141368 797.861 153.792368 797.861 153.433368 797.861 153.051368 797.687 125.944368 797.469 124.267368 824.034 118.906368 855.54 112.631368 886.599 116.291368 912.652 136.992368 941.072 159.610368 952.621 190.095368 948.019 226.114368 943.187 263.909368 925.891 294.525368 889.674 309.397368 821.886 337.244368 750.597 294.830368 747.576 220.536368 746.398 191.587368 747.391 162.552368 747.391 133.560368L747.282 133.560368zM1465.64 260.853368C1468.07 273.916368 1466.73 285.456368 1466.62 296.909368 1466.62 300.011368 1463.48 301.263368 1461.18 302.896368 1440.23 317.451368 1416.85 320.979368 1392.63 315.655368 1352.89 306.946368 1329.75 280.535368 1319.79 241.986368 1311.52 209.795368 1316.58 179.857368 1337.01 153.087368 1353.72 131.184368 1377.32 121.310368 1403.33 118.120368 1438.47 113.765368 1470.89 121.789368 1496.33 147.960368 1509.92 161.664368 1517.58 180.166368 1517.66 199.475368 1518.01 234.431368 1517.61 269.398368 1518.00199 304.355368 1518.09 312.465368 1515.14 314.425368 1507.49 314.414368 1481.2 314.349368 1481.17 314.621368 1481.15 288.134368 1481.15 262.355368 1479.96 236.500368 1481.57 210.840368 1483.27 183.809368 1464.48 159.565368 1437.91 152.728368 1403.28 143.801368 1368.69 158.280368 1356.37 191.190368 1343.9 224.513368 1355.82 265.218368 1391.76 280.089368 1413.33 288.983368 1435.39 286.164368 1454.2 270.182368 1457.64 267.308368 1461.11 264.565368 1465.64 260.853368zM1185.17 116.129368C1243.58 116.249368 1287.96 158.706368 1288 214.509368 1288 271.543368 1244.27 317.326368 1189.99 317.001108 1126.08 316.661368 1083.1 274.738368 1082.01 214.051368 1081.23 166.098368 1129.08 113.043368 1185.17 116.129368zM1186.26 282.828368C1226.37 285.009368 1249.76 258.350368 1249.42 212.110368 1249.17 176.369368 1217.06 149.340368 1184.32 149.046368 1148.77 148.719368 1120.27 182.366368 1120.20971 215.697368 1120.11 253.924368 1145.62 285.227368 1186.24 282.828368L1186.26 282.828368zM1771.62 314.740368C1720.66 318.096368 1686.82 288.672368 1671.18 249.135368 1655.04 208.219368 1678.32 152.803368 1717.52 133.035368 1742.16 120.609368 1767.64 122.065368 1793.44 122.043368 1794.14 122.043368 1795.11 121.880368 1795.5 122.271368 1803.73 130.482368 1797.88 140.736368 1799.22 149.925368 1800.16 156.322368 1795.02 155.975368 1790.74 155.996368 1783.39 155.996368 1776.02 156.214368 1768.66 155.996368 1735.6 155.062368 1709.56 179.186368 1705.18 211.228368 1700.71 243.813368 1722.16 271.565368 1756.03 279.135368 1767.51 281.698368 1779.06 280.754368 1790.59 280.634368 1797.53 280.558368 1799.5 283.100368 1799.64 289.877368 1800.14 314.772368 1800.36 314.761368 1775.79 314.729368L1771.62 314.740368zM1589.73 140.362368C1604.28 125.333368 1620.11 116.244368 1640.59 117.050368 1647.09 117.301368 1650.72 118.750368 1649.88 125.976368 1649.78 127.740368 1649.78 129.509368 1649.88 131.273368 1649.88 148.983368 1649.88 148.711368 1632.28 151.610368 1609.83 155.359368 1600.12 172.208368 1593.04 191.509368 1590.69 197.929368 1590.31 204.588368 1590.31 211.312368 1590.31 242.406368 1590.06 273.500368 1590.42 304.593368 1590.5 312.342368 1588.39 314.914368 1580.39 314.969368 1554.17 315.143368 1554.19 315.481368 1554.2 289.259368 1554.2 236.946368 1554.39 184.632368 1553.99909 132.384368 1553.94 123.415368 1556.83 120.047368 1565.41 121.311368 1566.11 121.366368 1566.81 121.366368 1567.51 121.311368 1586.34 121.246368 1586.34 121.246368 1589.73 140.362368zM1033.87 218.584368C1033.87 247.617368 1033.7 276.660368 1034 305.682368 1034.06 312.446368 1032.23 315.501368 1024.94 314.934368 1018.5 314.432368 1012.04 314.432368 1005.6 314.934368 997.755 315.523368 995.978 311.966368 995.999799 304.864368 996.206 246.450368 996.206 188.032368 995.999799 129.610368 995.999799 122.748368 998.207 120.358368 1005.22 120.184368 1033.81 119.496368 1033.84 119.300368 1033.91 147.460368 1033.97 171.179368 1033.91 194.898368 1033.91 218.617368L1033.87 218.584368zM1037 77.3404676C1037 90.1593676 1029.01 98.0856676 1015.92 98.0001676 1003.35 97.9146676 993.243 88.6210676 993.003 76.9452676 992.806 65.6966676 1002.59 56.2000676 1014.62 56.0077676 1017.53 55.9351676 1020.42 56.4329676 1023.13 57.4720676 1025.84 58.5111676 1028.32 60.0704676 1030.4 62.0582676 1032.49 64.0460676 1034.14 66.4220676 1035.28 69.0466676 1036.41 71.6711676 1037 74.4910676 1037 77.3404676L1037 77.3404676zM629.34 71.8707676C570.81 26.2407676 486.66 34.0007676 434.19 86.4907676L400.41 120.270368 460.41 180.270368 495.17 145.500368C516.97 123.710368 551.87 119.800368 576.52 138.280368 584.212 144.008368 590.459 151.453368 594.762 160.023368 599.066 168.593368 601.307 178.050368 601.307 187.640368 601.307 197.230368 599.066 206.687368 594.762 215.257368 590.459 223.827368 584.212 231.273368 576.52 237.000368 551.87 255.480368 516.97 251.550368 495.17 229.780368L455 189.640368 453 187.640368 393 127.640368 391 125.640368 320.29 54.8807676C302.865 37.4381676 282.166 23.6106676 259.381 14.1925676 236.596 4.77448762 212.175-.0484969811 187.52.000367618504L47.71.000367618504C35.0536.0192820189 22.9215 5.05866762 13.9767 14.0128676 5.03196 22.9669676 0 35.1042676 0 47.7607676L0 193.840368.14 193.670368C.927428 220.039368 7.28148 245.943368 18.7852 269.683368 30.289 293.423368 46.6825 314.462368 66.89 331.420368 141.89 394.670368 253.73 386.980368 323.14 317.610368L393.14 247.610368 434.29 288.760368C486.76 341.230368 570.89 349.010368 629.42 303.400368 647.097 289.717368 661.407 272.168368 671.252 252.098368 681.096 232.028368 686.215 209.970368 686.215 187.615368 686.215 165.261368 681.096 143.203368 671.252 123.133368 661.407 103.063368 647.097 85.5141676 629.42 71.8307676L629.34 71.8707676zM260.34 260.400368C246.003 274.848368 227.693 284.704368 207.739 288.716368 187.784 292.727368 167.088 290.712368 148.282 282.928368 129.476 275.143368 113.41 261.940368 102.129 244.999368 90.8479 228.058368 84.8611 208.144368 84.9294119 187.790368L84.9294119 113.210368C84.9294119 105.661368 87.9281 98.4218676 93.2651 93.0829676 98.6021 87.7440676 105.841 84.7433676 113.39 84.7407676L187 84.7407676C200.594 84.6539676 214.07 87.2712676 226.644 92.4404676 239.217 97.6096676 250.638 105.227368 260.24 114.850368L333 187.620368 260.34 260.400368z"/>
    <path d="M236 212.550368L236 162.690368C236 160.924368 236.348 159.175368 237.024 157.543368 237.7 155.911368 238.691 154.428368 239.939 153.180368 241.188 151.931368 242.671 150.940368 244.303 150.264368 245.935 149.588368 247.684 149.240368 249.45 149.240368 251.216 149.240368 252.965 149.588368 254.597 150.264368 256.229 150.940368 257.712 151.931368 258.961 153.180368 260.21 154.428368 261.2 155.911368 261.876 157.543368 262.552 159.175368 262.9 160.924368 262.9 162.690368L262.9 212.550368C262.9 216.117368 261.483 219.538368 258.961 222.061368 256.438 224.583368 253.017 226.000368 249.45 226.000368 245.883 226.000368 242.462 224.583368 239.939 222.061368 237.417 219.538368 236 216.117368 236 212.550368L236 212.550368zM130.18 212.550368L130.18 162.690368C130.131 160.892368 130.443 159.103368 131.097 157.428368 131.751 155.752368 132.734 154.225368 133.989 152.936368 135.243 151.647368 136.743 150.623368 138.4 149.923368 140.056 149.224368 141.837 148.863368 143.635 148.863368 145.434 148.863368 147.214 149.224368 148.871 149.923368 150.527 150.623368 152.027 151.647368 153.282 152.936368 154.536 154.225368 155.519 155.752368 156.173 157.428368 156.827 159.103368 157.139 160.892368 157.09 162.690368L157.09 212.550368C157.139 214.348368 156.827 216.137368 156.173 217.813368 155.519 219.488368 154.536 221.015368 153.282 222.304368 152.027 223.593368 150.527 224.617368 148.871 225.317368 147.214 226.017368 145.434 226.377368 143.635 226.377368 141.837 226.377368 140.056 226.017368 138.4 225.317368 136.743 224.617368 135.243 223.593368 133.989 222.304368 132.734 221.015368 131.751 219.488368 131.097 217.813368 130.443 216.137368 130.131 214.348368 130.18 212.550368L130.18 212.550368zM183.05 234.360368L183.05 140.940368C183.05 137.373368 184.467 133.952368 186.989 131.430368 189.512 128.907368 192.933 127.490368 196.5 127.490368 200.067 127.490368 203.488 128.907368 206.011 131.430368 208.533 133.952368 209.95 137.373368 209.95 140.940368L209.95 234.360368C209.95 237.927368 208.533 241.348368 206.011 243.871368 203.488 246.393368 200.067 247.810368 196.5 247.810368 192.933 247.810368 189.512 246.393368 186.989 243.871368 184.467 241.348368 183.05 237.927368 183.05 234.360368L183.05 234.360368zM560.89 200.880368L560.89 174.350368C560.839 173.378368 560.986 172.406368 561.322 171.492368 561.659 170.579368 562.178 169.744368 562.848 169.037368 563.518 168.331368 564.325 167.769368 565.219 167.384368 566.113 167.000368 567.077 166.802368 568.05 166.802368 569.024 166.802368 569.987 167.000368 570.881 167.384368 571.775 167.769368 572.582 168.331368 573.252 169.037368 573.922 169.744368 574.441 170.579368 574.778 171.492368 575.114 172.406368 575.262 173.378368 575.21 174.350368L575.21 200.880368C575.262 201.852368 575.114 202.825368 574.778 203.738368 574.441 204.652368 573.922 205.487368 573.252 206.193368 572.582 206.899368 571.775 207.462368 570.881 207.846368 569.987 208.231368 569.024 208.429368 568.05 208.429368 567.077 208.429368 566.113 208.231368 565.219 207.846368 564.325 207.462368 563.518 206.899368 562.848 206.193368 562.178 205.487368 561.659 204.652368 561.322 203.738368 560.986 202.825368 560.839 201.852368 560.89 200.880368L560.89 200.880368zM504.58 200.880368L504.58 174.350368C504.529 173.378368 504.676 172.406368 505.012 171.492368 505.349 170.579368 505.868 169.744368 506.538 169.037368 507.208 168.331368 508.015 167.769368 508.909 167.384368 509.803 167.000368 510.767 166.802368 511.74 166.802368 512.714 166.802368 513.677 167.000368 514.571 167.384368 515.465 167.769368 516.272 168.331368 516.942 169.037368 517.612 169.744368 518.131 170.579368 518.468 171.492368 518.804 172.406368 518.952 173.378368 518.9 174.350368L518.9 200.880368C518.952 201.852368 518.804 202.825368 518.468 203.738368 518.131 204.652368 517.612 205.487368 516.942 206.193368 516.272 206.899368 515.465 207.462368 514.571 207.846368 513.677 208.231368 512.714 208.429368 511.74 208.429368 510.767 208.429368 509.803 208.231368 508.909 207.846368 508.015 207.462368 507.208 206.899368 506.538 206.193368 505.868 205.487368 505.349 204.652368 505.012 203.738368 504.676 202.825368 504.529 201.852368 504.58 200.880368L504.58 200.880368zM532.74 212.490368L532.74 162.740368C532.837 160.907368 533.634 159.180368 534.966 157.917368 536.298 156.653368 538.064 155.949368 539.9 155.949368 541.736 155.949368 543.502 156.653368 544.834 157.917368 546.166 159.180368 546.963 160.907368 547.06 162.740368L547.06 212.490368C547.111 213.462368 546.964 214.435368 546.628 215.348368 546.291 216.261368 545.772 217.097368 545.102 217.803368 544.432 218.509368 543.625 219.072368 542.731 219.456368 541.837 219.841368 540.873 220.039368 539.9 220.039368 538.927 220.039368 537.963 219.841368 537.069 219.456368 536.175 219.072368 535.368 218.509368 534.698 217.803368 534.028 217.097368 533.509 216.261368 533.172 215.348368 532.836 214.435368 532.689 213.462368 532.74 212.490368L532.74 212.490368z"/>
    <polygon points="339.89 300.751 393 247.601 333 187.601 279.85 240.751"/>
    <path d="M629.34,71.8707676 C570.81,26.2407676 486.66,34.0007676 434.19,86.4907676 L400.41,120.270368 L460.41,180.270368 L495.17,145.500368 C516.97,123.710368 551.87,119.800368 576.52,138.280368 C584.212,144.008368 590.459,151.453368 594.762,160.023368 C599.066,168.593368 601.307,178.050368 601.307,187.640368 C601.307,197.230368 599.066,206.687368 594.762,215.257368 C590.459,223.827368 584.212,231.273368 576.52,237.000368 C551.87,255.480368 516.97,251.550368 495.17,229.780368 L455,189.640368 L453,187.640368 L393,127.640368 L391,125.640368 L320.29,54.8807676 C302.865,37.4381676 282.166,23.6106676 259.381,14.1925676 C236.596,4.77448762 212.175,-0.0484969811 187.52,0.000367618504 L47.71,0.000367618504 C35.0536,0.0192820189 22.9215,5.05866762 13.9767,14.0128676 C5.03196,22.9669676 0,35.1042676 0,47.7607676 L0,193.840368 L0.14,193.670368 C0.927428,220.039368 7.28148,245.943368 18.7852,269.683368 C30.289,293.423368 46.6825,314.462368 66.89,331.420368 C141.89,394.670368 253.73,386.980368 323.14,317.610368 L393.14,247.610368 L434.29,288.760368 C486.76,341.230368 570.89,349.010368 629.42,303.400368 C647.097,289.717368 661.407,272.168368 671.252,252.098368 C681.096,232.028368 686.215,209.970368 686.215,187.615368 C686.215,165.261368 681.096,143.203368 671.252,123.133368 C661.407,103.063368 647.097,85.5141676 629.42,71.8307676 L629.34,71.8707676 Z M260.34,260.400368 C246.003,274.848368 227.693,284.704368 207.739,288.716368 C187.784,292.727368 167.088,290.712368 148.282,282.928368 C129.476,275.143368 113.41,261.940368 102.129,244.999368 C90.8479,228.058368 84.8611,208.144368 84.9294119,187.790368 L84.9294119,113.210368 C84.9294119,105.661368 87.9281,98.4218676 93.2651,93.0829676 C98.6021,87.7440676 105.841,84.7433676 113.39,84.7407676 L187,84.7407676 C200.594,84.6539676 214.07,87.2712676 226.644,92.4404676 C239.217,97.6096676 250.638,105.227368 260.24,114.850368 L333,187.620368 L260.34,260.400368 Z"/>
    <path d="M236 212.550368L236 162.690368C236 160.924368 236.348 159.175368 237.024 157.543368 237.7 155.911368 238.691 154.428368 239.939 153.180368 241.188 151.931368 242.671 150.940368 244.303 150.264368 245.935 149.588368 247.684 149.240368 249.45 149.240368 251.216 149.240368 252.965 149.588368 254.597 150.264368 256.229 150.940368 257.712 151.931368 258.961 153.180368 260.21 154.428368 261.2 155.911368 261.876 157.543368 262.552 159.175368 262.9 160.924368 262.9 162.690368L262.9 212.550368C262.9 216.117368 261.483 219.538368 258.961 222.061368 256.438 224.583368 253.017 226.000368 249.45 226.000368 245.883 226.000368 242.462 224.583368 239.939 222.061368 237.417 219.538368 236 216.117368 236 212.550368L236 212.550368zM130.18 212.550368L130.18 162.690368C130.131 160.892368 130.443 159.103368 131.097 157.428368 131.751 155.752368 132.734 154.225368 133.989 152.936368 135.243 151.647368 136.743 150.623368 138.4 149.923368 140.056 149.224368 141.837 148.863368 143.635 148.863368 145.434 148.863368 147.214 149.224368 148.871 149.923368 150.527 150.623368 152.027 151.647368 153.282 152.936368 154.536 154.225368 155.519 155.752368 156.173 157.428368 156.827 159.103368 157.139 160.892368 157.09 162.690368L157.09 212.550368C157.139 214.348368 156.827 216.137368 156.173 217.813368 155.519 219.488368 154.536 221.015368 153.282 222.304368 152.027 223.593368 150.527 224.617368 148.871 225.317368 147.214 226.017368 145.434 226.377368 143.635 226.377368 141.837 226.377368 140.056 226.017368 138.4 225.317368 136.743 224.617368 135.243 223.593368 133.989 222.304368 132.734 221.015368 131.751 219.488368 131.097 217.813368 130.443 216.137368 130.131 214.348368 130.18 212.550368L130.18 212.550368zM183.05 234.360368L183.05 140.940368C183.05 137.373368 184.467 133.952368 186.989 131.430368 189.512 128.907368 192.933 127.490368 196.5 127.490368 200.067 127.490368 203.488 128.907368 206.011 131.430368 208.533 133.952368 209.95 137.373368 209.95 140.940368L209.95 234.360368C209.95 237.927368 208.533 241.348368 206.011 243.871368 203.488 246.393368 200.067 247.810368 196.5 247.810368 192.933 247.810368 189.512 246.393368 186.989 243.871368 184.467 241.348368 183.05 237.927368 183.05 234.360368L183.05 234.360368zM560.89 200.880368L560.89 174.350368C560.839 173.378368 560.986 172.406368 561.322 171.492368 561.659 170.579368 562.178 169.744368 562.848 169.037368 563.518 168.331368 564.325 167.769368 565.219 167.384368 566.113 167.000368 567.077 166.802368 568.05 166.802368 569.024 166.802368 569.987 167.000368 570.881 167.384368 571.775 167.769368 572.582 168.331368 573.252 169.037368 573.922 169.744368 574.441 170.579368 574.778 171.492368 575.114 172.406368 575.262 173.378368 575.21 174.350368L575.21 200.880368C575.262 201.852368 575.114 202.825368 574.778 203.738368 574.441 204.652368 573.922 205.487368 573.252 206.193368 572.582 206.899368 571.775 207.462368 570.881 207.846368 569.987 208.231368 569.024 208.429368 568.05 208.429368 567.077 208.429368 566.113 208.231368 565.219 207.846368 564.325 207.462368 563.518 206.899368 562.848 206.193368 562.178 205.487368 561.659 204.652368 561.322 203.738368 560.986 202.825368 560.839 201.852368 560.89 200.880368L560.89 200.880368zM504.58 200.880368L504.58 174.350368C504.529 173.378368 504.676 172.406368 505.012 171.492368 505.349 170.579368 505.868 169.744368 506.538 169.037368 507.208 168.331368 508.015 167.769368 508.909 167.384368 509.803 167.000368 510.767 166.802368 511.74 166.802368 512.714 166.802368 513.677 167.000368 514.571 167.384368 515.465 167.769368 516.272 168.331368 516.942 169.037368 517.612 169.744368 518.131 170.579368 518.468 171.492368 518.804 172.406368 518.952 173.378368 518.9 174.350368L518.9 200.880368C518.952 201.852368 518.804 202.825368 518.468 203.738368 518.131 204.652368 517.612 205.487368 516.942 206.193368 516.272 206.899368 515.465 207.462368 514.571 207.846368 513.677 208.231368 512.714 208.429368 511.74 208.429368 510.767 208.429368 509.803 208.231368 508.909 207.846368 508.015 207.462368 507.208 206.899368 506.538 206.193368 505.868 205.487368 505.349 204.652368 505.012 203.738368 504.676 202.825368 504.529 201.852368 504.58 200.880368L504.58 200.880368zM532.74 212.490368L532.74 162.740368C532.837 160.907368 533.634 159.180368 534.966 157.917368 536.298 156.653368 538.064 155.949368 539.9 155.949368 541.736 155.949368 543.502 156.653368 544.834 157.917368 546.166 159.180368 546.963 160.907368 547.06 162.740368L547.06 212.490368C547.111 213.462368 546.964 214.435368 546.628 215.348368 546.291 216.261368 545.772 217.097368 545.102 217.803368 544.432 218.509368 543.625 219.072368 542.731 219.456368 541.837 219.841368 540.873 220.039368 539.9 220.039368 538.927 220.039368 537.963 219.841368 537.069 219.456368 536.175 219.072368 535.368 218.509368 534.698 217.803368 534.028 217.097368 533.509 216.261368 533.172 215.348368 532.836 214.435368 532.689 213.462368 532.74 212.490368L532.74 212.490368z"/>
    <polygon points="339.89 300.751 393 247.601 333 187.601 279.85 240.751"/>
  </g>
</svg>
